<svg xmlns="http://www.w3.org/2000/svg" xmlns:xlink="http://www.w3.org/1999/xlink" height="80" viewBox="0 0 64 80" width="64"><svg height="46.9" viewBox="0 0 54 47" width="53.76" x="5" y="5"><defs><style>.\31 d319a51-530b-4a25-bfd5-af895afb4ecc{fill:#fdc01c}</style></defs><title>shops</title><path class="1d319a51-530b-4a25-bfd5-af895afb4ecc" d="M42.44 1.38A1.61 1.61 0 0 1 44.08 0h8a1.89 1.89 0 0 1 1.09.44 1.48 1.48 0 0 1 .43 1.74A1.64 1.64 0 0 1 52 3.33h-6a.62.62 0 0 0-.73.58Q43.62 10.48 42 17.05 39.49 27 37 37a1.71 1.71 0 0 1-2 1.55H8.17a2.41 2.41 0 0 1-1.28-.42 1.54 1.54 0 0 1-.46-1.79 1.62 1.62 0 0 1 1.63-1.08h25.36a.59.59 0 0 0 .73-.58 3.44 3.44 0 0 1 .09-.4l1-4H7a1.7 1.7 0 0 1-2-1.53q-2.51-10-5-20a1.63 1.63 0 0 1 1.21-2 3.4 3.4 0 0 1 .86-.08h39c.49-1.79.93-3.54 1.37-5.29zm-38.6 8.69c.49 2 1 3.9 1.46 5.83.22.86.22.85 1.14.85h4.89c-.28-2.27-.56-4.47-.83-6.68H3.84zm29.77 0c-.27 2.21-.55 4.41-.83 6.69h5.37a.64.64 0 0 0 .5-.3c.55-2.09 1.07-4.19 1.61-6.37h-6.65zm-19.72 0l.82 6.64h5.66v-6.64h-6.49zm16.34 0h-6.46v6.62h5.62c.28-2.21.55-4.38.83-6.6zM12.58 26.78l-.83-6.66H6.36L8 26.78h4.55zm23.22 0a.43.43 0 0 0 .32-.24c.53-2.1 1-4.21 1.56-6.31a.53.53 0 0 0 0-.17h-4.21c-1.15 0-1.14 0-1.27 1.15-.2 1.79-.44 3.56-.65 5.33v.28c1.45 0 2.84.01 4.25-.01zm-15.44-6.65h-5.22l.86 6.65h4.39v-6.65zm8.61 0h-5.2v6.67h4.36zM11.74 40.23a3.34 3.34 0 1 0 3.39 3.34 3.33 3.33 0 0 0-3.39-3.34zM32.34 40.23a3.34 3.34 0 1 0 3.34 3.37 3.31 3.31 0 0 0-3.34-3.37z"/></svg><svg height="18" viewBox="0 0 23 18" width="22.5" x="5" y="57"><defs><style>.ccd61883-a20f-40a6-89fc-1008c9567009{fill:#fff}</style></defs><title>photo</title><path class="ccd61883-a20f-40a6-89fc-1008c9567009" d="M22.5 16.12A1.88 1.88 0 0 1 20.63 18H1.87A1.88 1.88 0 0 1 0 16.13V1.87A1.88 1.88 0 0 1 1.88 0h18.75a1.88 1.88 0 0 1 1.88 1.88v14.24zM1.88 1.5a.39.39 0 0 0-.37.38v14.24a.39.39 0 0 0 .38.38h18.75a.39.39 0 0 0 .38-.37V1.87a.39.39 0 0 0-.37-.37H1.87zm3.38 6a2.25 2.25 0 0 1-2.25-2.25A2.25 2.25 0 0 1 5.26 3a2.25 2.25 0 0 1 2.25 2.25A2.25 2.25 0 0 1 5.25 7.5zM19.51 15H3.01v-2.25L6.76 9l1.88 1.88 6-6 4.88 4.88v5.25z"/></svg></svg>